<svg xmlns="http://www.w3.org/2000/svg" version="1.1" xmlns:xlink="http://www.w3.org/1999/xlink" xmlns:svgjs="http://svgjs.dev/svgjs" width="1440" height="1000" preserveAspectRatio="none" viewBox="0 0 1440 1000"><g mask="url(&quot;#SvgjsMask1093&quot;)" fill="none"><rect width="1440" height="1000" x="0" y="0" fill="rgba(0, 18, 255, 1)"></rect><path d="M0,686.813C127.576,681.589,179.416,515,282.928,440.245C378.532,371.202,521.639,367.013,582.604,266.066C644.684,163.274,613.302,33.042,600.994,-86.41C588.204,-210.541,582.135,-340.042,509.686,-441.645C433.948,-547.861,319.507,-625.319,193.268,-658.209C68.934,-690.602,-66.16,-676.245,-182.642,-622.021C-290.907,-571.622,-351.228,-462.282,-426.6,-369.651C-499.44,-280.132,-604.922,-203.473,-616.63,-88.658C-628.261,25.404,-544.204,123.046,-486.971,222.392C-434.895,312.788,-373.718,392.044,-298.223,464.043C-206.575,551.447,-126.539,691.995,0,686.813" fill="#000cad"></path><path d="M1440 1549.7530000000002C1542.365 1547.6680000000001 1621.304 1468.781 1715.537 1428.7440000000001 1833.4859999999999 1378.6309999999999 1983.496 1384.814 2063.619 1284.797 2147.1710000000003 1180.499 2157.3379999999997 1031.869 2139.577 899.4159999999999 2121.724 766.277 2052.331 647.1569999999999 1964.488 545.528 1876.567 443.808 1773.438 331.76099999999997 1639.436 320.78200000000004 1507.843 310.001 1405.124 425.04999999999995 1290.338 490.296 1202.548 540.197 1119.312 589.22 1045.653 658.296 964.136 734.74 856.23 803.173 838.962 913.5840000000001 821.674 1024.124 899.902 1124.471 957.769 1220.228 1010 1306.659 1073.775 1383.142 1157.154 1440.118 1242.366 1498.346 1336.814 1551.855 1440 1549.7530000000002" fill="#525eff"></path></g><defs><mask id="SvgjsMask1093"><rect width="1440" height="1000" fill="#ffffff"></rect></mask></defs></svg>